<?xml version="1.0" standalone="no"?>
<!DOCTYPE svg PUBLIC "-//W3C//DTD SVG 20010904//EN"
 "http://www.w3.org/TR/2001/REC-SVG-20010904/DTD/svg10.dtd">
<svg version="1.0" xmlns="http://www.w3.org/2000/svg"
 width="1300.000000pt" height="1700.000000pt" viewBox="0 0 1300.000000 1700.000000"
 preserveAspectRatio="xMidYMid meet">

<g transform="translate(0.000000,1700.000000) scale(0.100000,-0.100000)"
fill="#FFFFFF" stroke="none">
<path d="M6175 16479 c-890 -63 -1766 -408 -2563 -1009 -198 -149 -298 -234
-492 -418 -268 -255 -473 -479 -690 -758 -1022 -1312 -1658 -3030 -1815 -4905
-52 -629 -45 -1365 21 -2004 154 -1506 632 -2925 1385 -4108 279 -439 596
-835 959 -1198 476 -477 931 -810 1482 -1084 599 -299 1181 -453 1835 -485
512 -26 1059 47 1563 206 407 128 909 375 1285 632 515 351 1025 834 1426
1352 532 686 957 1473 1274 2360 255 715 438 1532 519 2325 66 639 73 1375 21
2004 -98 1169 -381 2276 -838 3281 -312 685 -718 1331 -1172 1865 -162 190
-559 587 -735 735 -792 666 -1666 1068 -2575 1184 -270 35 -613 44 -890 25z
m815 -183 c569 -73 1033 -215 1541 -472 811 -409 1558 -1077 2163 -1934 675
-955 1151 -2097 1406 -3370 92 -460 144 -858 182 -1400 19 -267 16 -1032 -5
-1320 -66 -899 -225 -1714 -487 -2500 -679 -2033 -1977 -3595 -3545 -4265
-1137 -485 -2353 -485 -3490 0 -1514 647 -2783 2132 -3476 4067 -784 2189
-768 4742 43 6908 382 1019 926 1918 1586 2620 156 166 411 409 552 526 788
656 1692 1054 2595 1143 61 6 126 13 145 15 86 10 681 -4 790 -18z"/>
<path d="M6670 15961 c0 -6 23 -22 50 -36 28 -14 53 -32 56 -39 6 -16 -88
-566 -109 -636 -15 -52 -41 -70 -104 -70 -67 0 -50 -17 30 -29 39 -7 117 -21
172 -32 233 -46 271 -51 352 -46 133 8 234 68 300 178 98 165 80 369 -46 502
-80 85 -178 126 -361 152 -63 8 -151 24 -195 34 -131 31 -145 33 -145 22z
m365 -96 c185 -48 301 -164 320 -320 15 -120 -32 -262 -111 -335 -122 -112
-325 -131 -427 -40 -29 26 -32 33 -30 82 2 48 86 570 99 611 7 22 67 23 149 2z"/>
<path d="M5465 15809 c-96 -26 -247 -64 -323 -80 -35 -8 -63 -18 -63 -24 1 -5
25 -11 55 -13 30 -2 59 -9 65 -16 16 -19 152 -583 154 -640 l2 -50 -52 -25
c-29 -14 -53 -32 -53 -39 0 -8 7 -11 18 -8 50 16 290 76 377 96 122 27 233 78
287 132 122 122 143 343 48 501 -45 75 -137 149 -212 172 -72 21 -216 19 -303
-6z m226 -58 c115 -44 197 -151 224 -296 16 -85 9 -145 -28 -225 -81 -173
-358 -265 -419 -140 -23 47 -160 586 -156 614 9 65 250 95 379 47z"/>
<path d="M7790 15702 c0 -5 18 -17 40 -27 22 -10 45 -24 51 -31 11 -13 -57
-204 -183 -514 -70 -173 -63 -166 -160 -146 -24 5 -38 5 -38 -2 0 -5 78 -40
173 -77 94 -37 247 -98 339 -135 122 -50 169 -65 176 -57 5 7 20 32 32 57 12
25 33 59 46 77 38 50 10 50 -49 -2 -28 -25 -68 -50 -88 -56 -45 -14 -100 1
-269 72 -102 43 -120 54 -120 73 0 38 118 321 132 318 38 -8 246 -96 262 -110
16 -15 18 -27 13 -85 -7 -83 8 -86 33 -7 9 30 32 90 50 133 45 108 33 116 -33
22 -10 -14 -26 -25 -35 -25 -26 0 -282 103 -282 113 0 16 91 251 106 275 8 12
20 22 27 22 13 0 285 -105 306 -119 15 -9 30 -75 31 -133 0 -21 3 -38 8 -38 8
0 53 115 55 143 2 15 -27 31 -143 78 -80 33 -215 89 -300 125 -154 64 -180 72
-180 56z"/>
<path d="M4445 15420 c-3 -6 -4 -18 -1 -28 3 -9 15 -78 26 -152 11 -74 35
-236 55 -360 48 -309 48 -311 -22 -359 -62 -42 -33 -42 45 0 183 100 205 113
193 117 -6 2 -35 -6 -63 -18 -33 -14 -54 -18 -60 -12 -9 9 -68 285 -68 317 0
9 167 109 212 127 14 6 31 -3 66 -34 75 -67 192 -182 192 -189 0 -4 -22 -21
-50 -39 -27 -18 -47 -36 -44 -41 4 -8 137 57 266 130 51 29 27 41 -42 21 -43
-12 -45 -11 -266 186 -374 331 -419 366 -439 334z m190 -235 c133 -114 134
-97 -4 -172 -63 -35 -85 -43 -91 -33 -7 12 -30 142 -46 269 -9 66 -15 69 141
-64z"/>
<path d="M9010 15076 c0 -2 16 -27 35 -55 22 -33 32 -58 28 -69 -10 -26 -395
-523 -415 -536 -13 -8 -28 -5 -64 12 -25 13 -48 21 -51 18 -2 -2 29 -30 69
-62 40 -32 99 -82 130 -112 32 -29 63 -50 68 -47 7 4 7 11 2 18 -5 7 -24 31
-42 54 l-33 43 26 32 c15 18 79 103 144 188 64 85 151 198 192 250 41 52 76
97 78 99 6 9 76 -45 113 -86 65 -74 74 -154 26 -239 -64 -115 -206 -130 -298
-31 l-28 29 0 -26 c0 -66 120 -146 217 -146 135 1 233 100 233 235 0 101 -46
157 -250 307 -63 47 -124 95 -134 106 -16 19 -46 30 -46 18z"/>
<path d="M3794 14911 c-80 -29 -136 -66 -237 -155 -52 -45 -133 -110 -180
-145 -105 -78 -116 -102 -30 -66 70 29 67 31 250 -197 207 -260 243 -309 243
-336 0 -12 -14 -37 -31 -56 -17 -20 -29 -42 -27 -51 2 -10 32 10 98 66 52 44
136 112 186 150 161 121 237 223 255 343 27 172 -75 358 -238 434 -78 35 -213
42 -289 13z m213 -106 c69 -37 157 -130 188 -198 51 -110 41 -233 -27 -339
-58 -91 -158 -156 -223 -144 -36 7 -79 54 -301 329 -169 210 -161 188 -91 253
55 51 118 90 197 120 22 9 66 13 120 11 71 -3 93 -8 137 -32z"/>
<path d="M6272 14749 c-245 -21 -463 -66 -683 -139 -809 -269 -1529 -867
-2112 -1755 -970 -1478 -1384 -3560 -1112 -5590 252 -1876 1087 -3496 2250
-4365 412 -308 857 -513 1310 -605 348 -71 759 -74 1105 -10 927 173 1802 817
2467 1815 939 1411 1369 3366 1172 5330 -115 1148 -442 2214 -956 3114 -719
1262 -1749 2052 -2854 2191 -154 19 -451 27 -587 14z m643 -118 c844 -133
1606 -614 2254 -1421 666 -829 1142 -1953 1355 -3200 130 -760 162 -1569 90
-2345 -197 -2152 -1157 -4004 -2517 -4856 -305 -191 -669 -340 -1008 -413
-375 -81 -803 -81 -1178 0 -1725 372 -3117 2310 -3475 4839 -66 468 -81 698
-81 1270 1 512 9 681 56 1065 69 575 192 1128 365 1648 494 1479 1371 2614
2419 3127 300 147 591 240 890 284 199 29 196 29 455 26 183 -2 266 -7 375
-24z"/>
<path d="M6434 13737 c-78 -58 -121 -108 -158 -187 -30 -62 -31 -70 -31 -192
l1 -128 -41 0 c-52 0 -144 -24 -196 -51 -141 -71 -203 -240 -165 -448 8 -45
17 -85 20 -88 3 -3 36 18 73 46 105 79 192 97 243 48 73 -67 63 -215 -20 -310
-71 -80 -217 -136 -322 -124 -93 11 -180 65 -215 131 -17 33 -17 33 46 68 63
35 91 131 56 197 -17 33 -70 81 -90 81 -21 0 -45 29 -45 53 0 51 -24 104 -65
144 -37 38 -48 43 -86 43 -92 0 -145 -62 -173 -200 -3 -16 -19 -32 -41 -44
-48 -26 -88 -95 -88 -151 0 -62 29 -105 96 -139 51 -26 57 -32 57 -61 0 -47
-28 -133 -63 -194 -39 -70 -137 -168 -191 -192 -130 -57 -284 -18 -302 77 -13
71 49 160 144 205 26 12 48 23 50 25 2 1 -4 17 -13 35 -27 51 -105 129 -160
157 -42 23 -62 27 -130 26 -89 -1 -144 -20 -225 -78 -43 -31 -50 -33 -96 -25
-136 22 -288 3 -393 -51 -109 -55 -179 -135 -222 -256 -26 -72 -31 -240 -10
-321 l13 -53 63 58 c35 32 90 71 122 88 51 26 68 29 148 29 85 0 94 -2 155
-36 65 -35 65 -36 70 -85 3 -33 25 -90 61 -165 101 -205 135 -350 126 -529 -7
-138 -33 -226 -113 -386 -60 -121 -66 -136 -66 -197 0 -88 25 -130 97 -163
l52 -24 2104 2 2104 3 43 25 c68 38 85 76 80 168 -5 70 -10 87 -65 193 -74
144 -105 250 -111 390 -7 173 28 318 125 516 35 71 57 132 62 164 6 52 6 52
71 88 61 34 70 36 155 36 80 0 97 -3 148 -29 32 -17 87 -56 122 -88 l63 -58
11 45 c47 188 2 385 -114 502 -116 115 -310 166 -509 134 -46 -8 -53 -6 -96
25 -81 58 -136 77 -225 78 -68 1 -88 -3 -130 -26 -55 -28 -133 -106 -160 -157
-9 -18 -15 -34 -13 -35 2 -2 24 -13 49 -25 94 -44 157 -131 144 -197 -14 -80
-99 -124 -208 -110 -78 11 -129 38 -194 103 -90 90 -153 217 -153 308 0 29 6
35 57 61 67 34 96 77 96 139 0 56 -40 125 -88 151 -22 12 -38 28 -41 44 -20
98 -48 150 -96 180 -40 24 -100 26 -138 4 -40 -24 -79 -90 -86 -147 -7 -49
-24 -77 -49 -77 -7 0 -27 -12 -45 -26 -92 -78 -78 -204 28 -262 23 -13 42 -27
42 -32 0 -5 -15 -28 -33 -52 -87 -114 -252 -138 -413 -58 -135 66 -208 219
-160 334 44 105 144 107 279 5 37 -28 70 -49 73 -46 3 3 12 43 20 88 38 208
-24 377 -165 448 -52 27 -144 51 -196 51 l-41 0 1 128 c0 122 -1 130 -31 192
-17 36 -46 83 -65 105 -34 38 -144 125 -159 125 -4 0 -34 -19 -66 -43z m36
-379 l-1 -253 -46 50 c-128 139 -132 316 -9 421 22 19 43 34 48 34 4 0 8 -114
8 -252z m113 221 c90 -74 118 -208 66 -319 -14 -30 -47 -77 -72 -105 l-46 -50
-1 253 c0 138 3 252 8 252 4 0 24 -14 45 -31z m-315 -474 c69 -32 149 -115
193 -199 19 -36 36 -66 39 -66 3 0 20 30 39 66 68 132 190 224 296 224 95 -1
165 -52 210 -155 22 -48 26 -66 40 -149 l6 -39 -33 22 c-65 44 -153 81 -191
81 -49 0 -85 -19 -131 -70 -61 -67 -86 -132 -86 -221 0 -67 4 -85 35 -145 97
-195 332 -303 540 -249 152 40 284 160 310 282 6 32 6 32 -28 26 -79 -12 -159
56 -143 123 9 35 51 72 91 80 32 6 32 7 22 39 -14 46 0 103 33 137 38 37 79
37 121 0 25 -23 33 -38 36 -79 3 -27 0 -59 -6 -71 -10 -18 -7 -22 23 -32 78
-25 106 -105 54 -157 -19 -19 -40 -27 -78 -31 l-53 -5 6 -81 c17 -268 208
-496 429 -513 157 -12 275 34 318 122 52 107 0 267 -104 322 l-28 15 28 29
c72 76 212 61 306 -33 147 -147 142 -459 -11 -567 -28 -20 -140 -55 -149 -47
-2 3 3 15 12 28 9 12 16 37 16 55 0 45 -35 68 -93 60 -35 -5 -50 -14 -92 -61
l-50 -56 -190 0 c-227 0 -240 5 -340 113 -67 72 -135 193 -150 267 -4 19 -9
38 -12 42 -2 4 -23 -20 -47 -55 -76 -111 -231 -221 -365 -261 -39 -11 -96 -16
-200 -16 -143 0 -147 1 -197 30 -85 48 -166 163 -181 256 -3 19 -9 34 -13 34
-4 0 -10 -15 -13 -34 -15 -93 -96 -208 -181 -256 -50 -29 -54 -30 -197 -30
-104 0 -161 5 -200 16 -134 40 -289 150 -365 261 -24 35 -45 59 -47 55 -3 -4
-8 -23 -12 -42 -15 -74 -83 -195 -150 -267 -100 -108 -113 -113 -341 -113
l-189 0 -50 56 c-42 47 -57 56 -92 61 -58 8 -93 -15 -93 -60 0 -18 7 -43 16
-55 9 -13 14 -26 11 -28 -3 -3 -34 2 -69 12 -49 14 -73 28 -110 65 -135 135
-110 441 46 560 100 76 217 79 285 6 l23 -25 -28 -15 c-71 -37 -115 -113 -122
-209 -9 -126 56 -202 194 -228 156 -30 290 9 394 114 106 107 168 244 177 392
l6 81 -53 5 c-121 12 -145 137 -35 183 28 13 29 15 30 85 0 68 2 73 33 101 43
38 84 39 122 1 33 -34 47 -91 33 -137 -10 -32 -10 -33 22 -39 67 -13 112 -85
84 -134 -25 -44 -66 -67 -120 -67 l-49 0 6 -30 c25 -120 159 -240 309 -280
208 -54 443 54 540 249 31 60 35 78 35 145 0 89 -25 154 -86 221 -46 51 -82
70 -131 70 -38 0 -126 -37 -191 -81 l-33 -21 7 43 c35 244 178 355 352 274z
m-1996 -741 l37 -6 -30 -53 c-39 -70 -63 -183 -51 -242 l10 -43 -33 20 c-17
11 -59 27 -93 35 -100 26 -202 -1 -308 -82 l-47 -36 6 60 c18 171 121 292 288
337 57 15 159 20 221 10z m4649 -4 c177 -33 294 -160 315 -340 l7 -63 -47 36
c-106 81 -208 108 -308 82 -34 -8 -76 -24 -93 -35 l-33 -20 10 43 c12 59 -12
172 -51 243 l-30 53 27 4 c54 8 151 7 203 -3z m-3302 -370 c71 -70 155 -118
251 -141 36 -9 115 -14 225 -14 l170 0 63 34 c67 36 148 117 158 157 8 31 20
31 28 0 10 -40 91 -121 158 -157 l63 -34 170 0 c189 0 243 9 344 58 70 34 167
118 202 173 l21 35 23 -54 c33 -83 69 -139 128 -201 l53 -56 -38 0 c-33 0 -42
6 -83 57 -26 31 -56 73 -68 94 l-21 37 -62 -58 c-123 -114 -195 -133 -504
-128 -212 3 -228 4 -278 27 -53 24 -112 80 -112 106 0 8 -4 15 -10 15 -5 0
-10 -8 -10 -17 0 -9 -20 -36 -45 -59 -69 -66 -108 -74 -369 -74 -295 0 -360
18 -480 131 l-62 57 -21 -37 c-12 -21 -42 -63 -68 -94 -41 -51 -50 -57 -83
-57 l-37 0 58 62 c55 59 136 199 138 237 0 12 5 9 16 -9 9 -14 46 -54 82 -90z
m2936 -393 c19 -26 2 -68 -38 -97 -18 -13 -38 -32 -45 -42 -13 -17 -92 -18
-1970 -18 l-1957 0 -34 35 c-19 19 -38 35 -43 35 -5 0 -15 15 -23 32 -16 39
-6 65 27 71 13 2 933 4 2046 3 1949 -1 2024 -2 2037 -19z m-97 -309 c-15 -67
-3 -181 36 -331 20 -76 36 -151 36 -168 l0 -29 -2030 0 -2030 0 0 29 c0 17 16
92 36 168 40 157 50 245 36 321 l-9 52 1967 0 1968 0 -10 -42z m163 -655 c8
-9 14 -39 14 -68 0 -29 -6 -59 -14 -68 -12 -16 -173 -17 -2121 -17 -1948 0
-2109 1 -2121 17 -8 9 -14 39 -14 68 0 29 6 59 14 68 12 16 173 17 2121 17
1948 0 2109 -1 2121 -17z"/>
<path d="M5396 12674 c-35 -34 -8 -104 41 -104 45 0 71 71 37 104 -8 9 -26 16
-39 16 -13 0 -31 -7 -39 -16z"/>
<path d="M7526 12674 c-35 -34 -8 -104 41 -104 45 0 71 71 37 104 -8 9 -26 16
-39 16 -13 0 -31 -7 -39 -16z"/>
<path d="M4949 11191 c-29 -29 -29 -31 -29 -141 0 -182 -3 -180 310 -180 310
0 309 0 310 178 0 112 0 114 -29 143 l-29 29 -252 0 -252 0 -29 -29z"/>
<path d="M7489 11191 c-29 -29 -29 -31 -29 -143 1 -178 0 -178 310 -178 313 0
310 -2 310 180 0 110 0 112 -29 141 l-29 29 -252 0 -252 0 -29 -29z"/>
<path d="M6293 11122 c-78 -43 -143 -80 -143 -83 0 -4 65 -43 144 -88 l145
-81 84 0 84 0 147 81 c81 45 144 85 139 89 -4 5 -71 42 -149 84 l-140 76 -85
-1 -84 -1 -142 -76z"/>
<path d="M4651 11083 c-33 -41 -7 -93 45 -93 52 0 75 74 32 104 -32 23 -54 20
-77 -11z"/>
<path d="M5763 11095 c-15 -10 -23 -26 -23 -44 0 -61 80 -83 109 -29 14 25 14
29 -5 55 -25 34 -51 39 -81 18z"/>
<path d="M7161 11084 c-25 -32 -26 -43 -5 -72 19 -27 64 -29 87 -4 24 26 21
68 -5 86 -32 23 -54 20 -77 -10z"/>
<path d="M8272 11094 c-43 -30 -20 -104 32 -104 54 0 78 59 41 100 -22 24 -43
25 -73 4z"/>
<path d="M4010 8063 c0 -2345 0 -2336 45 -2583 25 -132 79 -335 120 -445 316
-857 1050 -1455 2192 -1785 l133 -38 132 38 c712 206 1258 510 1655 923 396
412 623 918 688 1532 13 119 15 469 15 2358 l0 2217 -2490 0 -2490 0 0 -2217z
m750 1907 c21 -11 51 -36 66 -55 l26 -35 622 0 621 0 22 34 c45 69 163 97 242
56 41 -20 86 -67 96 -100 9 -29 81 -29 90 0 10 33 55 80 96 100 79 41 197 13
242 -56 l22 -34 621 0 622 0 26 35 c78 102 243 100 313 -4 48 -70 52 -150 13
-218 l-19 -32 28 -39 c25 -34 32 -38 64 -34 116 13 230 -109 211 -228 -9 -53
-44 -111 -81 -135 l-32 -20 -1 -1267 0 -1266 34 -20 c46 -27 79 -92 80 -157 0
-66 -34 -129 -97 -175 -41 -30 -47 -40 -47 -71 0 -32 5 -39 49 -67 64 -39 95
-96 95 -172 1 -65 -34 -133 -83 -165 -22 -14 -33 -31 -37 -55 -29 -172 -120
-464 -199 -640 -278 -618 -803 -1112 -1502 -1413 -35 -14 -63 -31 -63 -36 0
-20 -56 -75 -95 -92 -99 -45 -223 5 -258 104 -5 12 -17 17 -47 17 -30 0 -42
-5 -47 -17 -23 -67 -103 -122 -176 -123 -68 0 -142 43 -172 100 -9 17 -34 34
-72 49 -166 68 -438 219 -588 326 -560 400 -919 924 -1074 1568 -16 67 -32
138 -35 157 -4 24 -15 41 -37 55 -49 32 -84 100 -83 165 0 76 31 133 95 172
44 28 49 35 49 67 0 31 -6 41 -47 71 -26 19 -59 55 -72 80 -48 86 -24 199 52
249 l37 24 0 1266 -1 1266 -32 20 c-37 24 -72 82 -81 135 -19 119 95 241 211
228 32 -4 39 0 64 34 l28 39 -19 32 c-55 94 -20 220 75 274 52 29 131 31 185
3z"/>
<path d="M4616 9869 c-33 -26 -48 -62 -40 -94 6 -23 6 -23 25 -4 24 24 30 24
64 -2 20 -17 26 -29 23 -49 -4 -25 -2 -27 16 -20 32 11 60 56 60 96 0 28 -7
43 -32 65 -39 35 -79 37 -116 8z"/>
<path d="M6209 9861 c-31 -31 -39 -83 -19 -122 24 -45 110 -60 139 -25 8 10 5
16 -14 24 -32 15 -42 55 -21 87 9 14 24 25 34 25 14 1 13 4 -7 20 -34 29 -77
26 -112 -9z"/>
<path d="M6679 9870 c-20 -16 -21 -19 -7 -20 10 0 25 -11 34 -25 21 -32 11
-72 -21 -87 -19 -8 -22 -14 -14 -24 29 -35 115 -20 139 25 47 89 -57 193 -131
131z"/>
<path d="M8268 9861 c-27 -24 -33 -36 -33 -69 0 -43 29 -86 64 -95 14 -3 16 1
13 23 -3 20 3 32 23 49 34 26 40 26 64 2 18 -18 19 -18 24 -1 9 33 -5 70 -35
95 -40 34 -80 32 -120 -4z"/>
<path d="M6443 9693 c-28 -53 -90 -95 -151 -101 -71 -6 -114 12 -166 69 l-44
49 -615 0 -614 0 -26 -39 c-35 -52 -100 -83 -167 -80 -47 3 -54 0 -76 -28
l-24 -32 21 -40 c47 -90 33 -181 -37 -248 l-44 -43 0 -1264 0 -1264 36 -27
c68 -52 92 -150 55 -230 -19 -43 -74 -101 -103 -111 -14 -4 -18 -16 -18 -54 0
-44 3 -51 28 -64 121 -63 137 -243 28 -332 l-36 -30 29 -105 c198 -696 578
-1227 1121 -1564 100 -61 326 -176 422 -214 l56 -23 42 31 c96 69 236 38 284
-63 15 -32 21 -36 56 -36 35 0 41 4 56 36 48 101 188 132 284 63 l42 -31 56
23 c101 39 325 154 425 217 547 344 920 865 1118 1561 l29 105 -36 30 c-109
89 -93 269 29 332 24 13 27 20 27 64 0 38 -4 50 -18 54 -29 10 -84 68 -103
111 -37 80 -14 176 55 231 l36 29 0 1261 0 1261 -44 44 c-70 71 -84 160 -37
250 l21 40 -24 32 c-22 28 -29 31 -76 28 -67 -3 -132 28 -167 80 l-26 39 -614
0 -615 0 -44 -49 c-52 -57 -95 -75 -166 -69 -61 6 -123 48 -151 101 -17 33
-23 37 -57 37 -34 0 -40 -4 -57 -37z m47 -790 l0 -106 -25 23 c-30 28 -49 83
-40 117 9 36 35 73 51 73 11 0 14 -22 14 -107z m59 86 c42 -45 35 -123 -14
-169 l-25 -23 0 106 c0 62 4 107 10 107 5 0 18 -10 29 -21z m-135 -208 c17
-11 42 -38 56 -60 14 -22 27 -40 30 -40 3 0 16 18 30 40 48 77 136 104 185 55
23 -23 53 -101 43 -111 -2 -3 -22 4 -43 15 -52 27 -71 25 -105 -8 -27 -28 -52
-91 -45 -115 2 -7 6 -24 9 -39 13 -59 89 -118 169 -133 78 -15 191 46 215 115
10 29 10 30 -17 30 -33 0 -51 16 -51 47 0 15 9 27 24 34 18 9 24 19 24 40 -1
31 17 59 38 59 21 0 44 -30 44 -57 0 -15 11 -36 26 -50 24 -22 25 -26 11 -46
-8 -12 -26 -23 -41 -25 -26 -3 -27 -5 -21 -45 24 -147 129 -241 248 -223 60 9
97 43 97 91 0 41 -22 90 -47 104 -28 15 2 41 48 41 102 0 166 -161 103 -258
-12 -18 -68 -52 -86 -52 -2 0 -3 15 -3 33 0 45 -33 49 -76 8 -29 -28 -38 -31
-101 -31 -38 0 -83 6 -102 14 -40 17 -91 77 -112 133 l-16 42 -49 -50 c-74
-76 -179 -112 -273 -95 -44 8 -102 63 -111 105 -4 17 -10 31 -15 31 -5 0 -11
-14 -15 -31 -9 -42 -67 -97 -111 -105 -94 -17 -199 19 -273 95 l-49 50 -16
-42 c-21 -56 -72 -116 -112 -133 -19 -8 -64 -14 -102 -14 -63 0 -72 3 -101 31
-43 41 -76 37 -76 -8 0 -18 -1 -33 -3 -33 -1 0 -18 6 -37 14 -124 52 -80 296
54 296 46 0 76 -26 48 -41 -25 -14 -47 -63 -47 -104 0 -48 37 -82 97 -91 120
-18 225 77 247 223 6 39 5 42 -20 45 -15 2 -33 13 -41 25 -14 20 -13 24 11 46
14 13 26 34 26 46 0 32 18 61 38 61 27 0 42 -20 42 -55 0 -24 6 -35 25 -43 47
-22 27 -82 -26 -82 -27 0 -27 -1 -17 -30 24 -69 135 -129 215 -116 140 24 218
163 149 267 -33 49 -63 57 -118 30 -23 -11 -44 -18 -47 -16 -9 10 22 89 44
111 30 30 85 32 129 5z m-914 -363 c-11 -24 -20 -56 -20 -72 0 -23 -3 -27 -17
-21 -48 19 -89 16 -135 -9 -45 -24 -48 -24 -48 -6 0 29 19 72 43 99 32 35 75
50 139 51 l57 0 -19 -42z m2147 16 c40 -30 63 -65 70 -107 l6 -38 -49 26 c-48
26 -89 29 -136 10 -15 -6 -18 -2 -18 21 0 16 -9 49 -20 73 l-20 43 70 -4 c50
-2 77 -9 97 -24z m-1446 -198 c65 -20 169 -21 212 -2 18 7 45 28 60 45 l27 33
27 -33 c36 -43 79 -59 156 -59 95 0 161 23 213 75 24 25 44 39 44 31 0 -7 18
-38 41 -69 46 -66 37 -76 -15 -16 l-35 41 -35 -27 c-48 -36 -116 -55 -200 -55
-96 1 -146 14 -174 45 l-23 27 -20 -26 c-26 -32 -75 -46 -170 -46 -93 0 -159
19 -210 60 -22 17 -39 26 -39 21 0 -14 -60 -81 -72 -81 -5 0 9 25 31 57 23 31
41 62 41 69 0 8 20 -6 44 -31 31 -30 60 -48 97 -59z m1203 -112 c22 -8 20 -23
-6 -51 l-21 -23 -876 0 -875 0 -23 22 c-25 24 -30 44 -10 51 18 8 1792 8 1811
1z m-31 -166 c-4 -36 8 -104 33 -190 5 -17 -43 -18 -906 -18 -863 0 -911 1
-906 18 25 90 37 163 33 194 l-5 38 878 0 878 0 -5 -42z m65 -267 c8 -5 12
-21 10 -37 l-3 -29 -947 -3 c-898 -2 -948 -1 -949 15 -2 30 2 48 14 55 17 11
1859 10 1875 -1z m-234 -437 c45 -15 51 -15 82 0 43 20 73 20 102 0 27 -19 29
-44 2 -44 -10 0 -27 -12 -37 -26 -58 -82 -64 -87 -110 -80 -24 3 -54 1 -68 -6
-14 -6 -27 -9 -30 -6 -3 3 3 26 12 51 19 51 13 68 -17 49 -11 -7 -33 -12 -49
-12 -34 0 -58 -20 -67 -56 -10 -39 3 -69 55 -131 57 -70 120 -105 276 -158 61
-20 131 -50 156 -66 56 -35 59 -35 89 -4 24 26 73 34 86 14 3 -6 -9 -23 -27
-39 l-34 -28 28 -50 c15 -28 27 -58 27 -68 0 -11 13 -46 30 -78 27 -56 31 -91
7 -67 -26 26 -64 12 -118 -44 -35 -37 -70 -61 -103 -74 -41 -16 -47 -21 -32
-27 10 -4 32 -2 48 4 27 10 29 9 26 -11 -2 -14 -17 -29 -42 -40 -35 -16 -38
-20 -22 -29 9 -5 24 -7 32 -4 8 3 14 2 14 -2 0 -14 -24 -32 -42 -32 -10 0 -18
-4 -18 -10 0 -5 12 -10 26 -10 35 0 26 -22 -15 -34 -41 -12 -35 -30 14 -36 34
-5 37 -6 21 -19 -14 -11 -24 -12 -57 -2 -50 15 -62 6 -29 -19 28 -22 39 -23
93 -11 40 10 47 2 21 -24 -13 -13 -28 -15 -68 -10 -28 4 -62 14 -74 22 -22 13
-23 13 -20 -4 2 -10 14 -19 28 -21 14 -2 33 -11 42 -19 12 -11 28 -13 51 -9
18 3 37 3 40 -1 12 -11 -35 -53 -60 -53 -32 0 -93 26 -120 52 -31 29 -42 15
-16 -20 19 -26 88 -59 145 -69 29 -6 155 24 164 39 12 19 34 7 34 -18 0 -23 2
-25 16 -13 13 10 17 10 25 -2 5 -8 9 -22 9 -33 0 -15 5 -17 31 -12 28 5 30 4
18 -10 -7 -8 -25 -22 -41 -30 -33 -17 -37 -34 -8 -34 20 0 20 -2 -6 -45 -30
-52 -29 -90 6 -156 38 -75 18 -105 -80 -119 -73 -10 -90 -6 -90 25 0 27 15 44
64 75 42 25 50 47 41 108 -9 65 -33 110 -66 127 -36 19 -78 19 -84 0 -3 -8 -7
-22 -10 -30 -3 -12 -9 -10 -29 10 -26 25 -52 31 -133 26 -33 -2 -44 2 -53 18
-24 46 -51 16 -31 -34 11 -27 -14 -74 -41 -75 -3 0 -4 17 -1 38 4 28 0 44 -17
65 -25 32 -45 34 -62 7 -15 -23 -38 -27 -38 -5 0 8 -5 15 -11 15 -6 0 -9 -14
-7 -32 2 -25 9 -33 32 -39 34 -9 46 -24 46 -60 0 -49 -21 -90 -62 -115 -21
-14 -43 -35 -48 -48 -5 -13 -15 -26 -22 -29 -10 -5 -9 -9 5 -17 20 -13 23 -43
5 -57 -41 -30 -152 -37 -185 -10 -34 26 20 107 72 107 16 0 38 12 57 30 29 29
30 33 27 107 -4 80 -3 81 46 99 18 6 18 8 3 11 -10 3 -18 13 -18 24 0 10 -8
28 -17 39 -17 20 -17 20 -47 -8 -27 -26 -29 -26 -22 -4 20 70 20 69 -8 37 -20
-24 -25 -26 -26 -12 0 10 5 27 11 38 5 11 9 28 7 37 -3 11 -13 -1 -31 -35 -15
-29 -31 -53 -36 -53 -9 0 -25 141 -25 215 1 89 60 150 137 143 32 -3 32 -2 32
41 0 64 -18 72 -102 43 -121 -41 -202 -93 -120 -77 l32 6 -22 -20 c-13 -10
-31 -17 -41 -14 -12 3 -24 -4 -36 -21 -20 -31 -36 -34 -29 -6 7 25 -32 70 -59
70 -24 0 -23 -27 2 -35 11 -3 20 -13 20 -22 0 -39 -113 -130 -140 -113 -11 7
-11 14 -1 38 7 17 11 41 9 54 -2 19 -8 13 -31 -35 -29 -57 -29 -65 -5 -100 11
-16 9 -21 -11 -38 -13 -10 -30 -19 -38 -19 -9 0 -31 -13 -50 -30 -40 -35 -53
-38 -53 -9 0 19 -3 20 -37 13 -21 -4 -69 -7 -107 -5 -53 2 -67 -1 -64 -11 3
-7 20 -15 38 -18 31 -5 56 -30 30 -30 -7 0 -30 -14 -51 -31 -33 -26 -38 -34
-27 -46 9 -11 23 -13 53 -9 l40 6 -30 -25 c-37 -31 -83 -32 -119 -4 -30 23
-76 107 -76 138 0 26 -10 51 -21 51 -19 0 -9 -76 16 -112 14 -20 25 -42 25
-49 0 -6 11 -24 25 -41 14 -16 25 -37 25 -46 0 -10 -11 -34 -25 -54 -14 -20
-25 -46 -25 -58 0 -11 -7 -37 -15 -57 -8 -19 -15 -55 -15 -79 0 -31 -5 -46
-17 -52 -31 -14 -275 -3 -292 14 -3 3 1 17 10 32 12 21 22 26 45 25 46 -4 103
16 118 40 8 12 17 55 21 95 3 40 13 88 21 107 8 19 14 54 14 77 0 27 9 61 25
89 25 48 24 59 -6 59 -20 0 -29 20 -29 66 0 19 -4 34 -10 34 -5 0 -10 -7 -10
-15 0 -8 -4 -15 -10 -15 -5 0 -10 5 -10 10 0 6 -9 10 -20 10 -11 0 -20 7 -20
15 0 8 -4 15 -10 15 -5 0 -10 -5 -10 -11 0 -5 -4 -8 -9 -5 -4 3 -9 44 -9 90
-1 87 -12 131 -27 106 -6 -9 -13 -7 -27 11 l-19 24 5 -35 c3 -19 9 -52 12 -72
4 -25 3 -38 -5 -38 -6 0 -14 18 -17 40 -9 53 -24 51 -24 -2 l-1 -43 -34 37
c-20 21 -40 37 -46 35 -12 -3 -49 97 -46 127 2 19 -4 21 -58 24 -76 4 -102 -3
-110 -29 -4 -11 -20 -29 -37 -39 -58 -35 -79 4 -32 60 15 17 24 34 20 37 -10
10 -55 -37 -58 -61 -5 -33 -42 -28 -46 7 -4 30 44 87 73 87 9 0 33 9 55 20 25
13 59 20 93 20 30 0 80 -9 112 -20 32 -11 68 -20 80 -20 12 0 42 -13 66 -30
24 -16 54 -30 66 -30 13 0 32 -13 45 -30 15 -20 25 -27 32 -20 16 16 26 11 26
-13 0 -13 -9 -32 -20 -42 -20 -18 -21 -18 -35 1 -16 22 -17 18 -15 -50 2 -70
14 -96 44 -96 21 0 27 7 37 43 15 58 18 61 39 35 13 -16 15 -28 9 -40 -13 -24
-11 -40 7 -83 12 -29 18 -35 25 -24 12 19 11 76 -1 84 -5 3 -9 23 -9 43 1 57
-12 112 -26 112 -15 0 -41 -29 -49 -57 -4 -11 -13 -27 -21 -33 -24 -20 -18 6
10 48 14 20 25 44 25 52 0 9 4 20 9 26 13 14 22 104 11 104 -5 0 -17 -14 -25
-31 -25 -48 -40 -31 -37 42 3 63 3 63 -17 45 -19 -17 -21 -18 -27 -2 -4 11 1
28 13 44 23 31 43 39 43 18 0 -22 17 -20 32 4 19 30 35 24 43 -16 9 -51 26
-84 43 -84 10 0 12 7 8 25 -8 30 12 33 51 8 l26 -17 -6 34 c-3 19 -8 46 -12
60 l-8 25 31 -28 c16 -16 38 -27 49 -25 24 4 30 61 8 94 -14 22 -14 24 3 24
10 0 27 -7 38 -15 10 -8 22 -15 27 -15 11 0 8 38 -4 46 -21 13 7 25 35 15 21
-9 30 -7 45 8 12 12 28 17 39 14 11 -2 30 1 42 7 19 10 26 9 48 -14 l26 -25
-29 -11 c-20 -8 -37 -8 -58 0 -36 12 -37 12 -37 2 0 -5 25 -16 55 -26 36 -11
61 -26 75 -46 11 -15 43 -40 72 -54 96 -48 225 -34 420 44 175 71 264 51 477
-107 22 -17 104 -32 137 -25 66 12 86 133 35 213 -22 36 -45 54 -109 87 -44
23 -115 51 -156 61 -42 11 -96 29 -122 41 -65 32 -162 126 -209 204 -41 67
-66 81 -93 54 -18 -18 -27 -1 -16 30 6 18 21 31 42 38 18 5 40 20 49 33 8 13
30 30 47 38 17 8 47 23 66 34 43 23 72 24 134 3z m-1356 -37 c4 -33 8 -33 33
-4 l18 22 1 -21 c0 -12 -7 -27 -15 -34 -25 -21 -17 -34 10 -16 24 16 65 22 65
10 0 -9 -43 -68 -52 -72 -4 -2 -8 -12 -8 -22 0 -22 54 -56 130 -84 30 -10 76
-37 102 -59 39 -33 56 -40 93 -42 38 -1 50 -7 78 -36 17 -20 38 -38 46 -40 9
-3 11 -10 7 -18 -11 -17 -84 -5 -111 18 -22 20 -63 36 -113 46 -22 5 -37 16
-47 34 -13 27 -37 41 -95 57 -14 3 -33 13 -42 22 -28 24 -22 -5 7 -33 13 -14
36 -25 51 -25 18 0 38 -13 63 -40 21 -23 46 -40 58 -40 40 0 74 -20 134 -77
61 -58 63 -73 9 -73 -17 0 -44 17 -80 51 -56 52 -104 79 -140 79 -11 0 -41 19
-65 41 -54 49 -71 45 -26 -6 36 -41 44 -82 12 -65 -13 7 -22 7 -26 0 -10 -16
4 -30 29 -30 27 0 112 -54 126 -81 9 -16 5 -18 -32 -21 -42 -3 -68 -28 -29
-28 11 0 23 -4 26 -10 3 -5 -3 -10 -14 -10 -44 0 -68 19 -95 74 -15 31 -34 56
-42 56 -20 0 -18 -17 6 -47 11 -14 20 -36 20 -48 0 -16 11 -30 35 -44 19 -11
35 -26 35 -33 0 -7 3 -23 6 -35 5 -20 2 -23 -20 -23 -19 0 -32 8 -44 30 -9 17
-25 33 -35 36 -22 7 -37 43 -37 89 0 40 -8 65 -22 65 -6 0 -7 -21 -3 -54 5
-40 3 -61 -9 -85 -23 -44 -39 -30 -31 28 8 56 -9 80 -44 62 -35 -19 -59 -13
-75 21 -19 36 -10 48 36 48 27 0 58 31 58 59 0 22 -31 51 -54 51 -11 0 -37
-12 -58 -26 -48 -34 -86 -27 -95 16 -3 17 -10 33 -14 36 -19 12 -7 33 25 44
40 13 70 43 91 93 9 21 33 50 58 67 76 55 77 56 77 111 0 36 4 49 13 47 6 -3
13 -17 15 -31z m142 8 c-24 -25 -50 -33 -50 -15 0 9 47 39 64 40 5 0 -1 -11
-14 -25z m81 -25 c-23 -20 -61 -27 -61 -12 0 17 25 32 55 32 l30 -1 -24 -19z
m87 -26 c37 -10 25 -31 -20 -37 -52 -7 -68 5 -37 27 26 18 26 18 57 10z m926
-53 c-5 -23 -1 -32 25 -50 31 -22 41 -54 20 -67 -16 -10 -79 56 -79 84 0 27
17 62 30 62 5 0 7 -13 4 -29z m-1064 4 c0 -18 -37 -38 -56 -31 -21 8 -17 21 9
34 31 15 47 14 47 -3z m130 -55 c28 -11 65 -20 83 -20 31 -1 31 -1 12 -16 -14
-11 -34 -14 -67 -11 -27 2 -48 1 -48 -3 0 -10 120 -70 141 -70 35 0 28 -18 -9
-24 -61 -10 -68 -8 -126 41 -46 39 -56 53 -56 78 0 28 6 45 16 45 2 0 26 -9
54 -20z m-115 -19 c0 -23 -20 -23 -46 -1 l-24 20 35 -2 c22 -2 35 -8 35 -17z
m893 -30 c3 -8 -1 -12 -9 -9 -7 2 -15 10 -17 17 -3 8 1 12 9 9 7 -2 15 -10 17
-17z m-638 -31 c0 -21 -8 -24 -34 -14 -25 10 -19 34 9 34 18 0 25 -5 25 -20z
m-1007 -82 c12 -6 43 -29 69 -51 54 -45 130 -66 243 -67 53 0 77 5 100 20 38
25 55 25 55 0 0 -13 -9 -21 -27 -26 -16 -3 -38 -10 -51 -15 -13 -5 -32 -9 -43
-9 -11 0 -34 -7 -52 -16 -53 -28 -81 -20 -155 41 -73 61 -153 105 -189 105
-23 0 -30 10 -16 23 10 11 42 8 66 -5z m865 -165 c51 -36 67 -63 36 -63 -33 0
-158 86 -148 102 10 15 54 0 112 -39z m222 -3 c0 -5 -4 -10 -10 -10 -5 0 -10
5 -10 10 0 6 5 10 10 10 6 0 10 -4 10 -10z m82 -132 c-6 -6 -15 -8 -19 -4 -4
4 -1 11 7 16 19 12 27 3 12 -12z m421 -382 c7 -19 -18 -42 -28 -26 -8 13 1 40
14 40 5 0 11 -6 14 -14z m-589 -350 c-6 -16 -34 -30 -34 -18 0 5 5 13 12 20
16 16 29 15 22 -2z m890 -91 c-4 -8 -10 -15 -15 -15 -4 0 -6 7 -3 15 4 8 10
15 15 15 4 0 6 -7 3 -15z m-347 -308 c-15 -35 -41 -47 -51 -22 -3 10 4 26 19
41 33 33 49 23 32 -19z m711 16 c-2 -20 -9 -29 -25 -31 -27 -4 -30 14 -6 40
23 26 35 22 31 -9z"/>
<path d="M6004 8596 c-9 -24 4 -48 23 -44 12 2 18 12 18 28 0 29 -32 41 -41
16z"/>
<path d="M6954 8596 c-9 -24 4 -48 23 -44 12 2 18 12 18 28 0 29 -32 41 -41
16z"/>
<path d="M5800 7931 c-5 -11 -10 -40 -10 -64 0 -68 16 -77 139 -77 133 0 141
5 141 78 0 32 -5 63 -12 70 -8 8 -51 12 -130 12 -106 0 -118 -2 -128 -19z"/>
<path d="M6942 7938 c-7 -7 -12 -38 -12 -70 0 -74 8 -78 143 -78 121 0 137 9
137 79 0 78 -5 81 -138 81 -79 0 -122 -4 -130 -12z"/>
<path d="M6402 7903 l-64 -36 69 -38 c88 -50 118 -50 206 0 l69 38 -65 37
c-87 48 -130 48 -215 -1z"/>
<path d="M5677 7894 c-4 -4 -7 -16 -7 -26 0 -14 6 -19 23 -16 14 2 22 10 22
23 0 20 -25 32 -38 19z"/>
<path d="M6167 7894 c-4 -4 -7 -16 -7 -26 0 -13 7 -18 26 -18 21 0 25 4 22 22
-3 23 -27 35 -41 22z"/>
<path d="M6797 7894 c-4 -4 -7 -16 -7 -26 0 -13 7 -18 26 -18 21 0 25 4 22 22
-3 23 -27 35 -41 22z"/>
<path d="M7284 7886 c-8 -21 3 -36 27 -36 15 0 20 6 17 22 -4 27 -35 37 -44
14z"/>
<path d="M6275 6453 c-3 -16 -15 -46 -25 -68 -24 -48 -25 -62 -5 -45 22 18 28
7 14 -24 -10 -22 -10 -33 4 -62 9 -19 17 -44 17 -54 0 -24 22 -26 40 -5 15 18
7 182 -10 199 -5 5 -10 27 -10 48 0 44 -17 51 -25 11z"/>
<path d="M7074 6325 c-4 -14 -3 -29 1 -33 8 -8 35 26 35 45 0 24 -29 14 -36
-12z"/>
<path d="M5574 6295 c-3 -8 -3 -19 1 -25 11 -18 25 -11 25 15 0 27 -17 34 -26
10z"/>
<path d="M5620 6261 c0 -25 6 -27 13 -6 4 8 2 17 -3 20 -6 4 -10 -3 -10 -14z"/>
<path d="M6210 6145 c0 -20 -7 -50 -16 -67 -10 -19 -14 -42 -10 -61 3 -16 1
-36 -5 -43 -17 -21 -1 -34 41 -34 50 0 93 40 58 53 -10 4 -10 7 0 18 21 23 13
31 -22 25 -43 -8 -50 2 -30 49 17 41 15 86 -3 93 -9 2 -13 -8 -13 -33z"/>
<path d="M6435 6109 c-40 -45 -34 -64 10 -35 31 20 50 55 37 68 -5 5 -23 -7
-47 -33z"/>
<path d="M7019 6080 c-1 -14 -2 -37 -3 -52 -1 -15 2 -24 6 -22 4 3 8 -14 8
-37 0 -38 2 -41 13 -25 12 16 14 14 25 -23 14 -45 23 -53 64 -58 33 -3 36 7 7
33 -25 23 -66 90 -96 159 -18 41 -23 45 -24 25z"/>
<path d="M7290 5940 c0 -22 12 -35 50 -59 41 -25 90 -28 90 -6 0 8 -11 17 -25
21 -13 3 -29 12 -36 20 -6 8 -21 14 -33 14 -12 0 -27 5 -34 12 -9 9 -12 9 -12
-2z"/>
<path d="M6022 5904 c1 -9 9 -19 16 -22 9 -3 13 2 10 14 -1 9 -9 19 -16 22 -9
3 -13 -2 -10 -14z"/>
<path d="M5926 5741 c-8 -12 3 -41 15 -41 5 0 9 11 9 25 0 25 -14 34 -24 16z"/>
<path d="M5724 7035 c-8 -21 4 -35 31 -35 31 0 39 14 19 34 -19 20 -43 21 -50
1z"/>
<path d="M4347 9458 c-39 -39 -38 -99 2 -139 68 -67 174 -6 156 90 -7 36 -7
36 -22 14 -28 -41 -87 -21 -102 33 l-7 29 -27 -27z"/>
<path d="M8620 9461 c0 -47 -77 -81 -99 -43 -9 15 -12 15 -21 2 -33 -49 21
-129 88 -130 48 0 92 46 92 95 0 43 -13 71 -40 85 -17 9 -20 8 -20 -9z"/>
<path d="M4368 6575 c-15 -9 -32 -24 -38 -35 -16 -31 -12 -86 10 -111 19 -23
19 -23 20 -3 0 29 19 44 57 44 29 0 36 -5 47 -32 l14 -32 17 33 c44 86 -46
181 -127 136z"/>
<path d="M8554 6580 c-30 -12 -64 -58 -64 -87 0 -13 7 -38 16 -55 l16 -32 14
32 c11 27 18 32 47 32 38 0 57 -15 57 -44 1 -20 1 -20 20 3 22 25 26 80 10
112 -11 20 -60 49 -82 48 -7 0 -23 -4 -34 -9z"/>
<path d="M4343 6079 c-6 -8 -17 -27 -22 -42 -13 -34 7 -90 37 -106 27 -15 83
-13 103 2 38 29 51 96 25 129 -12 16 -14 16 -24 -7 -9 -20 -19 -25 -46 -25
-35 0 -51 12 -57 44 -3 16 -6 17 -16 5z"/>
<path d="M8640 6075 c0 -30 -19 -45 -57 -45 -26 0 -36 6 -45 25 -10 23 -12 23
-24 7 -26 -33 -13 -100 25 -129 28 -22 89 -16 116 12 32 31 34 92 5 126 -19
23 -19 23 -20 4z"/>
<path d="M6206 3849 c-14 -17 -26 -41 -26 -54 0 -61 56 -112 110 -100 34 7 63
35 36 35 -8 0 -23 11 -32 25 -22 34 -11 73 24 86 26 10 26 11 8 25 -11 8 -37
14 -57 14 -29 0 -43 -7 -63 -31z"/>
<path d="M6674 3866 c-18 -14 -18 -15 8 -25 35 -13 46 -52 24 -86 -9 -14 -24
-25 -32 -25 -27 0 2 -28 36 -35 54 -12 110 39 110 100 0 13 -12 37 -26 54 -20
24 -34 31 -63 31 -20 0 -46 -6 -57 -14z"/>
<path d="M3144 14312 c-22 -26 -78 -90 -127 -142 -93 -101 -100 -128 -16 -61
38 30 55 38 68 31 16 -9 202 -175 394 -352 59 -55 107 -107 107 -115 0 -9 -14
-38 -31 -64 -63 -98 -19 -68 104 72 70 79 122 146 116 148 -6 2 -23 -6 -38
-18 -54 -44 -67 -46 -105 -20 -35 25 -275 241 -403 363 -41 39 -73 78 -73 88
0 11 14 39 30 63 41 60 21 66 -26 7z"/>
<path d="M9725 14279 c-273 -115 -564 -230 -598 -236 -30 -4 -40 0 -76 32 -50
45 -65 40 -25 -8 16 -18 60 -70 98 -115 63 -75 86 -95 86 -74 0 4 -14 25 -30
46 -17 22 -30 47 -30 56 0 15 101 67 262 134 l36 15 86 -96 c47 -52 86 -98 86
-102 0 -11 -141 -265 -155 -280 -11 -11 -20 -7 -58 28 -24 22 -47 41 -51 41
-16 0 -2 -24 42 -73 26 -29 73 -84 105 -120 64 -73 89 -80 56 -15 -27 53 -23
71 49 205 150 278 303 584 300 600 -6 30 -38 23 -183 -38z m65 -14 c0 -12
-140 -284 -149 -289 -9 -6 -161 151 -161 165 0 4 48 27 108 52 188 78 202 83
202 72z"/>
<path d="M2769 13870 c-74 -39 -147 -149 -156 -233 -6 -63 8 -115 44 -158 38
-45 74 -59 150 -59 56 0 82 6 148 36 213 95 254 104 315 68 87 -51 91 -195 9
-271 -59 -54 -166 -71 -239 -38 -22 10 -43 15 -47 11 -11 -10 119 -125 143
-126 53 -1 164 103 216 203 59 113 26 246 -77 315 -47 32 -54 34 -120 30 -61
-3 -89 -13 -210 -68 -164 -76 -216 -84 -260 -39 -53 52 -45 147 17 215 58 63
123 75 211 39 10 -4 17 -3 17 4 0 13 -97 91 -113 91 -7 -1 -28 -9 -48 -20z"/>
<path d="M10236 13872 c-4 -6 7 -39 24 -73 26 -51 29 -64 18 -75 -22 -22 -557
-343 -582 -350 -18 -4 -28 1 -45 25 -23 32 -59 57 -68 47 -3 -3 17 -36 44 -73
27 -37 67 -96 87 -130 20 -35 42 -65 47 -69 23 -14 19 7 -11 59 -36 64 -34 74
25 126 69 60 471 318 481 309 10 -11 -154 -283 -302 -500 -52 -76 -94 -142
-94 -147 0 -5 26 -2 57 6 97 25 636 134 647 130 5 -2 -19 -24 -55 -49 -129
-91 -441 -298 -448 -298 -5 0 -23 16 -42 35 -30 30 -59 45 -59 30 0 -13 198
-304 203 -299 3 3 -5 34 -18 69 -19 50 -21 66 -12 78 7 8 64 50 127 94 63 44
181 125 261 181 80 56 156 102 168 102 14 0 39 -18 65 -47 23 -26 45 -42 49
-37 5 9 -88 163 -117 192 -10 10 -40 6 -157 -21 -286 -67 -485 -105 -496 -94
-3 3 4 18 14 34 29 41 333 541 333 547 0 3 -25 43 -55 88 -84 127 -81 123 -89
110z"/>
<path d="M2352 13193 c-18 -9 -48 -35 -67 -57 -32 -39 -172 -287 -200 -353
-19 -45 -1 -52 32 -13 36 44 53 60 61 60 15 -1 453 -244 546 -304 60 -39 64
-48 41 -103 -17 -39 -20 -67 -6 -59 13 9 173 307 167 313 -3 3 -26 -13 -51
-36 -24 -22 -48 -41 -52 -41 -14 0 -283 154 -283 162 0 19 31 68 52 82 19 13
58 16 234 16 l211 0 52 96 c28 53 49 99 46 102 -3 3 -22 -11 -43 -31 -20 -19
-50 -41 -67 -48 -18 -7 -105 -14 -217 -17 l-188 -4 0 51 c0 54 -19 113 -48
144 -48 54 -154 73 -220 40z m122 -107 c40 -17 83 -71 92 -114 4 -21 -1 -53
-16 -95 -39 -111 -29 -110 -182 -26 -73 39 -138 76 -145 81 -25 19 49 122 112
156 28 16 99 15 139 -2z"/>
<path d="M10833 12876 c20 -51 27 -98 18 -114 -10 -19 -550 -316 -594 -327
-20 -5 -30 1 -58 36 -18 23 -35 37 -37 31 -1 -5 26 -67 63 -137 36 -70 65
-133 65 -140 0 -7 7 -18 15 -25 13 -10 15 -9 15 8 0 11 -5 44 -12 73 -8 33 -9
54 -3 56 6 2 105 55 220 119 116 64 254 138 307 165 l98 49 25 -40 c40 -64 59
-147 45 -199 -27 -101 -143 -173 -238 -149 -51 13 -108 69 -124 120 -6 21 -15
38 -20 38 -17 0 -7 -82 17 -129 43 -86 115 -131 208 -131 99 0 178 52 217 142
33 76 24 128 -43 258 -138 267 -163 310 -176 310 -7 0 -11 -6 -8 -14z"/>
<path d="M1925 12423 c-32 -71 -96 -208 -142 -307 -46 -98 -83 -180 -83 -182
0 -2 6 -4 13 -4 6 0 21 17 32 37 34 63 38 62 191 -7 155 -70 448 -209 479
-227 19 -11 19 -13 2 -65 -20 -64 -20 -68 -7 -68 6 0 17 15 25 33 8 17 52 118
99 222 46 105 107 241 135 303 l50 113 -46 27 c-25 15 -61 39 -78 55 -31 25
-55 35 -55 21 0 -3 20 -32 44 -64 53 -71 62 -111 40 -176 -24 -72 -115 -266
-134 -287 -16 -17 -18 -17 -66 2 -99 40 -264 122 -264 132 0 25 115 261 131
270 11 5 46 7 85 3 50 -5 65 -4 60 4 -4 7 -13 12 -19 12 -7 0 -63 25 -126 55
-73 36 -118 52 -124 46 -6 -6 7 -21 37 -42 25 -18 46 -40 46 -50 0 -14 -112
-274 -123 -285 -4 -5 -247 106 -277 126 l-22 16 42 99 c54 127 99 218 114 227
6 4 44 8 84 8 39 0 72 3 72 8 0 6 -137 72 -151 72 -3 0 -32 -57 -64 -127z"/>
<path d="M11195 12113 c12 -86 11 -86 -18 -101 -34 -17 -421 -159 -535 -196
-45 -16 -89 -25 -97 -22 -8 3 -26 28 -40 56 -14 27 -30 50 -35 50 -14 0 -16 7
44 -147 30 -76 82 -219 116 -319 l61 -181 92 18 c51 10 98 19 105 19 31 0 -2
18 -45 24 -27 4 -70 19 -98 34 -42 23 -55 37 -82 91 -37 75 -90 228 -82 235 5
5 86 36 509 191 89 33 150 50 159 45 8 -4 24 -31 35 -61 12 -29 27 -54 34 -57
18 -6 15 11 -22 106 -18 48 -46 126 -62 175 -31 95 -50 114 -39 40z"/>
<path d="M1646 11778 c-35 -95 -77 -240 -73 -251 2 -7 16 12 31 41 38 74 55
72 191 -29 122 -91 375 -299 375 -310 0 -3 -51 -9 -112 -13 -62 -4 -200 -16
-307 -26 -233 -24 -226 -24 -244 -5 -13 13 -13 22 -2 72 8 32 10 62 5 67 -4 4
-34 -71 -65 -169 -54 -169 -62 -219 -26 -165 41 62 55 71 121 80 61 8 478 50
675 67 59 5 90 12 90 20 0 7 -24 30 -53 52 -66 49 -552 462 -571 484 -9 12
-12 33 -9 67 6 64 -6 72 -26 18z"/>
<path d="M11083 11249 c-113 -36 -219 -140 -257 -253 -20 -58 -23 -193 -6
-258 32 -124 88 -211 176 -274 75 -53 134 -74 213 -74 213 0 383 139 411 337
28 199 -73 417 -230 498 -92 47 -205 56 -307 24z m309 -109 c108 -33 178 -121
201 -253 9 -55 8 -71 -11 -132 -24 -80 -61 -129 -129 -174 -120 -80 -332 -109
-441 -61 -127 55 -207 229 -168 362 47 162 215 276 407 277 50 1 100 -6 141
-19z"/>
<path d="M1396 10868 c-26 -88 -86 -352 -83 -361 3 -7 18 18 35 56 17 37 37
67 44 67 22 0 616 -150 644 -162 26 -12 26 -14 21 -85 -6 -78 6 -97 22 -35 50
188 80 325 75 333 -9 15 -19 1 -34 -44 -24 -74 -22 -74 -335 3 -315 79 -374
97 -376 113 -1 7 0 38 1 70 2 52 -5 75 -14 45z"/>
<path d="M1266 10303 c-7 -51 -23 -149 -33 -196 -5 -24 -3 -28 12 -25 11 2 23
22 34 58 l17 55 85 -3 c87 -2 302 -24 448 -46 l85 -12 -215 -149 c-117 -82
-279 -193 -359 -247 -80 -54 -152 -108 -162 -120 -22 -32 -34 -188 -13 -188 8
0 19 17 25 39 6 22 19 49 29 62 19 23 19 23 131 11 250 -28 535 -73 549 -87 8
-8 16 -39 19 -69 2 -31 8 -56 12 -56 3 0 14 55 24 123 10 67 20 139 23 160 4
29 2 37 -9 37 -11 0 -21 -22 -34 -70 -11 -43 -23 -70 -31 -70 -28 0 -587 71
-591 75 -5 4 -13 -1 328 232 314 216 430 301 430 317 0 18 -112 34 -623 90
-70 7 -134 19 -142 26 -9 7 -15 29 -15 51 0 56 -18 57 -24 2z"/>
<path d="M11707 10333 c-2 -4 -8 -32 -12 -61 -5 -39 -13 -57 -30 -68 -14 -9
-147 -34 -333 -61 -255 -39 -313 -45 -326 -34 -8 7 -22 35 -31 62 -9 27 -21
49 -26 49 -12 0 -12 5 7 -140 25 -202 23 -193 40 -180 10 9 14 33 14 81 0 56
3 69 18 73 33 10 574 97 579 93 2 -3 -33 -49 -78 -103 -316 -380 -499 -612
-499 -632 0 -12 12 -14 67 -8 67 7 368 57 571 94 57 11 112 18 122 15 17 -4
26 -21 44 -76 3 -10 10 -16 15 -13 5 3 3 33 -5 68 -7 35 -13 86 -14 115 0 61
-7 83 -26 83 -11 0 -14 -16 -14 -64 0 -53 -3 -66 -17 -70 -67 -20 -582 -110
-589 -103 -2 2 135 170 400 492 72 87 140 170 150 183 18 22 18 29 6 110 -13
84 -22 113 -33 95z"/>
<path d="M1136 9184 c-7 -121 -4 -158 10 -118 26 74 33 83 69 93 25 7 105 7
244 0 277 -13 335 -27 385 -91 56 -74 60 -215 10 -315 -39 -77 -72 -93 -184
-93 -134 0 -487 28 -510 40 -21 11 -30 37 -27 84 1 16 -3 31 -10 33 -12 4 -22
-91 -26 -247 -2 -93 14 -126 23 -48 9 73 8 73 177 60 266 -22 426 -26 466 -13
49 17 121 98 143 164 28 80 25 227 -4 292 -60 131 -132 155 -531 171 -185 8
-201 14 -201 79 0 23 -5 35 -14 35 -10 0 -15 -30 -20 -126z"/>
<path d="M11090 9136 c0 -135 7 -196 21 -174 5 7 9 35 9 61 0 29 5 50 13 53
13 4 303 -79 315 -91 4 -4 8 -64 10 -135 l4 -128 -132 -52 c-72 -28 -144 -52
-158 -53 -25 -2 -28 1 -36 56 -5 31 -13 57 -18 57 -4 0 -8 -74 -8 -165 0 -134
3 -165 14 -165 8 0 17 16 21 37 11 58 20 69 87 97 35 14 155 63 268 109 113
47 256 106 318 132 175 75 183 67 -245 208 -197 65 -376 127 -399 138 -46 22
-64 52 -64 104 0 19 -4 35 -10 35 -6 0 -10 -48 -10 -124z m547 -202 c76 -25
144 -50 152 -54 17 -9 -1 -20 -144 -80 -55 -23 -112 -48 -126 -54 l-26 -13 -7
75 c-9 106 -8 172 3 172 5 0 72 -21 148 -46z"/>
<path d="M3906 2679 c-150 -35 -289 -188 -315 -345 -26 -168 62 -324 256 -454
106 -71 110 -71 187 -14 36 26 63 51 60 55 -2 4 -25 1 -50 -8 -60 -20 -146
-14 -207 16 -109 53 -184 172 -174 276 16 158 164 348 317 406 70 27 175 23
235 -9 52 -27 110 -87 130 -136 15 -35 20 -99 12 -146 -5 -33 18 -22 51 23
l35 48 -19 42 c-38 83 -177 202 -280 238 -58 20 -169 24 -238 8z"/>
<path d="M8571 2641 c-11 -7 10 -80 112 -382 70 -206 129 -391 133 -411 5 -33
2 -41 -35 -81 -22 -24 -38 -47 -35 -50 7 -7 244 182 244 194 0 14 -9 11 -57
-23 -33 -22 -50 -28 -61 -22 -8 5 -38 74 -68 153 -63 167 -69 142 59 248 50
42 84 64 95 61 21 -6 209 -122 249 -154 l26 -21 -43 -47 c-45 -48 -49 -72 -7
-40 212 162 278 227 190 187 -21 -9 -49 -16 -63 -16 -14 0 -90 40 -170 90
-207 128 -537 323 -547 323 -4 0 -14 -4 -22 -9z m221 -208 c70 -42 125 -80
122 -85 -3 -5 -44 -40 -92 -78 -62 -50 -88 -66 -94 -57 -10 18 -98 286 -98
299 0 15 23 4 162 -79z"/>
<path d="M8188 2327 c-53 -34 -125 -80 -160 -101 -69 -43 -61 -63 11 -27 75
39 55 60 263 -274 132 -212 168 -275 168 -299 0 -8 -21 -33 -46 -55 -25 -22
-44 -45 -42 -51 2 -8 72 33 281 166 34 23 48 44 28 44 -5 0 -29 -9 -55 -20
-34 -15 -51 -18 -64 -11 -17 9 -105 146 -304 472 -32 53 -58 103 -58 112 0 8
20 33 45 55 25 22 42 43 38 45 -5 3 -52 -22 -105 -56z"/>
<path d="M4502 2271 c-119 -41 -209 -132 -253 -256 -30 -85 -24 -216 13 -297
69 -150 254 -268 422 -268 187 0 317 94 387 279 30 80 24 212 -14 294 -87 191
-364 314 -555 248z m319 -53 c101 -46 173 -145 185 -255 18 -147 -123 -394
-258 -454 -151 -66 -348 18 -407 174 -37 101 -19 256 42 357 48 79 152 172
222 198 50 19 153 9 216 -20z"/>
<path d="M7775 2126 c-63 -16 -188 -68 -334 -140 -63 -31 -127 -56 -143 -56
-36 0 -38 -4 -78 -215 -33 -171 -94 -433 -105 -443 -7 -7 12 -34 -194 276
-100 150 -188 275 -195 278 -7 3 -43 -2 -80 -10 -37 -9 -80 -16 -96 -16 -34 0
-60 -9 -60 -21 0 -5 34 -9 75 -9 52 0 77 -4 80 -12 9 -27 84 -679 79 -691 -2
-6 -28 -21 -56 -32 -76 -30 -75 -47 3 -29 51 12 244 44 265 44 3 0 2 5 -2 11
-4 8 -25 9 -61 5 -78 -9 -88 -1 -112 101 -19 83 -62 364 -76 498 l-6 60 20
-25 c43 -52 261 -380 330 -497 40 -68 76 -123 80 -123 4 0 12 32 19 71 18 106
133 622 142 638 7 14 38 -132 60 -289 6 -41 20 -121 31 -178 27 -144 27 -140
-31 -165 -50 -22 -72 -56 -27 -43 24 7 303 56 318 56 5 0 9 5 9 10 0 6 -26 10
-58 10 -32 0 -65 6 -74 13 -15 11 -84 351 -121 595 -14 89 -7 102 57 120 26 8
50 20 53 28 6 16 41 -63 184 -418 43 -108 79 -204 79 -212 0 -8 -20 -31 -45
-52 -87 -71 -69 -67 195 46 166 71 228 107 265 156 85 111 71 256 -32 328 -33
23 -55 30 -111 34 l-69 4 34 50 c97 145 -29 290 -212 244z m52 -47 c112 -42
134 -191 41 -274 -40 -37 -115 -75 -147 -75 -10 0 -24 12 -31 28 -19 41 -100
246 -100 254 0 12 99 59 144 68 58 11 62 11 93 -1z m-360 -125 c-3 -3 -12 -4
-19 -1 -8 3 -5 6 6 6 11 1 17 -2 13 -5z m-52 -14 c-11 -5 -29 -9 -40 -9 -17
-1 -17 1 -5 9 8 5 26 9 40 9 23 0 23 -1 5 -9z m615 -199 c40 -21 88 -92 96
-142 15 -88 -47 -183 -142 -219 -67 -25 -95 -25 -123 -2 -18 14 -147 300 -139
307 2 1 19 10 38 20 110 56 208 69 270 36z"/>
<path d="M5180 2041 c0 -4 23 -22 50 -39 32 -20 50 -38 50 -50 0 -33 -200
-630 -216 -647 -9 -9 -24 -14 -33 -11 -9 3 -37 8 -63 12 -75 10 -57 -10 30
-36 126 -36 370 -115 473 -153 l96 -35 46 89 c26 49 47 94 47 100 0 6 -24 -10
-52 -35 -31 -28 -74 -53 -103 -62 -49 -16 -52 -15 -156 15 -148 43 -182 58
-174 78 3 9 48 150 100 314 108 340 110 345 124 354 6 3 38 -2 71 -11 58 -16
84 -14 64 6 -5 5 -40 18 -79 28 -38 11 -114 36 -169 56 -110 40 -106 39 -106
27z"/>
<path d="M6045 1830 c-138 -28 -235 -102 -296 -226 -32 -65 -34 -75 -34 -174
0 -98 2 -110 32 -170 80 -163 211 -240 409 -240 104 0 183 24 261 79 91 64
134 132 154 246 25 144 -13 276 -107 369 -96 96 -273 145 -419 116z m220 -37
c67 -22 155 -109 179 -178 57 -165 9 -408 -101 -505 -80 -70 -209 -90 -317
-49 -77 28 -146 106 -177 196 -33 95 -33 223 -1 316 70 202 222 282 417 220z"/>
</g>
</svg>
